<svg width="173" height="148" viewBox="0 0 173 148" fill="none" xmlns="http://www.w3.org/2000/svg">
<path d="M103.529 1C108.769 0.99993 111.603 1.06778 114.39 1.55762C116.469 1.92322 118.511 2.5228 121.498 3.47461L124.836 4.54785L124.897 4.56738L124.953 4.59473C128.716 6.35653 131.14 7.62889 133.136 8.92285C135.139 10.2217 136.685 11.5258 138.694 13.3154C143.697 17.7709 147.926 21.503 152.937 28.0898C157.963 34.6983 162.349 43.2885 166.112 53.8301C169.89 64.413 171.537 74.5989 171.028 84.3779C170.595 93.9896 168.162 102.179 163.684 108.9C155.19 121.691 143.624 134.884 127.019 140.81C124.11 141.847 121.213 142.575 118.261 143.262C115.296 143.951 112.291 144.597 109.09 145.479L109.076 145.481C108.427 145.7 107.887 145.871 107.497 145.97L107.391 145.996L107.282 146L91.5196 146.485L90.7901 146.508L90.5459 145.82L76.3174 105.695H23.5293L6.17288 145.883L5.91214 146.486H1.51468L2.10941 145.093L57.5586 15.3037L57.6719 15.0391L57.9092 14.875L59.9492 13.4619L60.0176 13.4141L60.0928 13.3779C60.1591 13.3468 60.2287 13.3174 60.2998 13.2861L60.3174 13.252L60.6983 13.1191C61.1845 12.9251 61.7522 12.7268 62.378 12.5293L67.1573 10.8516C72.2 8.79005 77.1693 6.88641 82.0645 5.13965C84.6574 4.21441 88.5552 3.40817 92.4785 2.72461C96.4161 2.03859 100.47 1.46163 103.376 1.01172L103.452 1H103.529ZM98.5821 7.08789C95.1494 7.00986 92.136 7.16105 90.751 7.47559C87.5649 8.19923 83.8161 8.60744 80.042 9.9541C78.056 10.6628 74.0492 11.5887 70.2139 12.5195C68.2743 12.9903 66.359 13.4659 64.7149 13.9248C64.0834 14.101 63.5011 14.2725 62.9785 14.4375L61.7842 14.8564L107.782 143.514H108.655C110.129 143.01 112.191 142.242 114.366 141.415C117.528 140.212 120.878 138.909 122.754 138.239C126.476 136.911 129.226 135.864 131.018 135.096C131.809 134.756 132.637 134.191 133.695 133.409C134.727 132.646 135.956 131.694 137.461 130.69C140.244 128.694 143.912 124.49 146.213 121.925C146.893 120.768 147.542 119.134 148.285 117.211C149.031 115.283 149.859 113.111 150.878 111.065L151.248 110.302C153.063 106.462 154.32 102.309 155.017 97.8379C156.582 86.722 154.684 73.547 149.233 58.2783C145.353 47.408 140.694 38.5604 135.275 31.707L135.272 31.7031C129.712 24.6068 125.791 19.6992 121.384 15.9746L121.344 15.9404L121.308 15.9023C118.027 12.4787 114.101 9.93278 108.272 7.9834C105.607 7.46054 101.96 7.16471 98.5821 7.08789ZM25.1377 101.841H75.0528L52.6338 38.4512L25.1377 101.841Z" fill="black" stroke="white" stroke-width="2"/>
<path d="M59.5293 12.5H61.0293L62.5293 17H61.5293L59.5293 12.5Z" fill="white"/>
<path d="M59.5293 12.5H61.0293L62.5293 17H61.5293L59.5293 12.5Z" fill="white"/>
<path d="M59.5293 12.5H61.0293L62.5293 17H61.5293L59.5293 12.5Z" fill="white"/>
<rect x="61.0293" y="13" width="2" height="1" fill="white"/>
</svg>
